<?xml version="1.0" encoding="utf-8"?>
<!-- Generator: Adobe Illustrator 24.0.1, SVG Export Plug-In . SVG Version: 6.00 Build 0)  -->
<svg version="1.1" id="Layer_1" xmlns="http://www.w3.org/2000/svg" xmlns:xlink="http://www.w3.org/1999/xlink" x="0px" y="0px"
	 viewBox="0 0 595.28 841.89" style="enable-background:new 0 0 595.28 841.89;" xml:space="preserve">
<style type="text/css">
	.st0{fill:#E1D3C1;}
</style>
<g>
	<g>
		<g>
			<g>
				<g>
					<path class="st0" d="M80.03,385.56c0-8.91-5.87-13.25-7.69-13.25c-1.82,0-7.69,4.34-7.69,13.25c0,8.91,7.69,22.65,7.69,22.65
						S80.03,394.47,80.03,385.56z"/>
					<g>
						<path class="st0" d="M91.51,396.82c2.87-2.87,2.37-6.15,1.79-6.73c-0.58-0.58-3.87-1.08-6.73,1.79
							c-2.87,2.87-4.81,9.75-4.81,9.75S88.65,399.69,91.51,396.82z"/>
						<path class="st0" d="M58.11,391.88c-2.87-2.87-6.15-2.37-6.73-1.79c-0.58,0.58-1.08,3.87,1.79,6.73
							c2.87,2.87,9.75,4.81,9.75,4.81S60.97,394.74,58.11,391.88z"/>
					</g>
				</g>
				<g>
					<path class="st0" d="M64.65,456.33c0,8.91,5.87,13.25,7.69,13.25c1.82,0,7.69-4.34,7.69-13.25c0-8.91-7.69-22.65-7.69-22.65
						S64.65,447.42,64.65,456.33z"/>
					<g>
						<path class="st0" d="M53.16,445.07c-2.87,2.87-2.37,6.15-1.79,6.73c0.58,0.58,3.87,1.08,6.73-1.79
							c2.87-2.87,4.81-9.75,4.81-9.75S56.03,442.2,53.16,445.07z"/>
						<path class="st0" d="M86.57,450.01c2.87,2.87,6.15,2.37,6.73,1.79c0.58-0.58,1.08-3.87-1.79-6.73
							c-2.87-2.87-9.75-4.81-9.75-4.81S83.7,447.15,86.57,450.01z"/>
					</g>
				</g>
			</g>
			<path class="st0" d="M80.03,420.94c0,4.25-3.44,7.69-7.69,7.69c-4.25,0-7.69-3.44-7.69-7.69s3.44-7.69,7.69-7.69
				C76.58,413.26,80.03,416.7,80.03,420.94z"/>
		</g>
		<g>
			<g>
				<g>
					<path class="st0" d="M530.63,385.56c0-8.91-5.87-13.25-7.69-13.25c-1.82,0-7.69,4.34-7.69,13.25c0,8.91,7.69,22.65,7.69,22.65
						S530.63,394.47,530.63,385.56z"/>
					<g>
						<path class="st0" d="M542.11,396.82c2.87-2.87,2.37-6.15,1.79-6.73c-0.58-0.58-3.87-1.08-6.73,1.79
							c-2.87,2.87-4.81,9.75-4.81,9.75S539.25,399.69,542.11,396.82z"/>
						<path class="st0" d="M508.71,391.88c-2.87-2.87-6.15-2.37-6.73-1.79c-0.58,0.58-1.08,3.87,1.79,6.73
							c2.87,2.87,9.75,4.81,9.75,4.81S511.57,394.74,508.71,391.88z"/>
					</g>
				</g>
				<g>
					<path class="st0" d="M515.25,456.33c0,8.91,5.87,13.25,7.69,13.25c1.82,0,7.69-4.34,7.69-13.25c0-8.91-7.69-22.65-7.69-22.65
						S515.25,447.42,515.25,456.33z"/>
					<g>
						<path class="st0" d="M503.76,445.07c-2.87,2.87-2.37,6.15-1.79,6.73c0.58,0.58,3.87,1.08,6.73-1.79
							c2.87-2.87,4.81-9.75,4.81-9.75S506.63,442.2,503.76,445.07z"/>
						<path class="st0" d="M537.17,450.01c2.87,2.87,6.15,2.37,6.73,1.79c0.58-0.58,1.08-3.87-1.79-6.73
							c-2.87-2.87-9.75-4.81-9.75-4.81S534.3,447.15,537.17,450.01z"/>
					</g>
				</g>
			</g>
			<circle class="st0" cx="522.94" cy="420.94" r="7.69"/>
		</g>
	</g>
	<g>
		<g>
			<path class="st0" d="M293.44,79.7c0,3.84,3.21,5.72,4.2,5.72c0.99,0,4.2-1.87,4.2-5.72s-4.2-9.77-4.2-9.77
				S293.44,75.86,293.44,79.7z"/>
			<g>
				<path class="st0" d="M304.31,52.15c0-6.1-5.09-9.08-6.67-9.08c-1.58,0-6.67,2.97-6.67,9.08c0,6.1,6.67,15.51,6.67,15.51
					S304.31,58.25,304.31,52.15z"/>
				<g>
					<path class="st0" d="M314.27,59.86c2.49-1.96,2.06-4.21,1.55-4.61c-0.51-0.4-3.36-0.74-5.84,1.22
						c-2.49,1.96-4.17,6.68-4.17,6.68S311.79,61.82,314.27,59.86z"/>
					<path class="st0" d="M285.29,56.47c-2.49-1.96-5.33-1.63-5.84-1.23c-0.51,0.4-0.93,2.65,1.55,4.61
						c2.49,1.96,8.46,3.29,8.46,3.29S287.78,58.43,285.29,56.47z"/>
				</g>
			</g>
		</g>
		<g>
			<path class="st0" d="M301.84,762.19c0-3.84-3.21-5.72-4.2-5.72c-0.99,0-4.2,1.87-4.2,5.72c0,3.84,4.2,9.77,4.2,9.77
				S301.84,766.03,301.84,762.19z"/>
			<g>
				<path class="st0" d="M290.97,789.74c0,6.1,5.09,9.08,6.67,9.08c1.58,0,6.67-2.97,6.67-9.08c0-6.1-6.67-15.51-6.67-15.51
					S290.97,783.64,290.97,789.74z"/>
				<g>
					<path class="st0" d="M281,782.03c-2.49,1.96-2.06,4.21-1.55,4.61c0.51,0.4,3.36,0.74,5.84-1.22c2.49-1.96,4.17-6.68,4.17-6.68
						S283.49,780.07,281,782.03z"/>
					<path class="st0" d="M309.98,785.42c2.49,1.96,5.33,1.63,5.84,1.22c0.51-0.4,0.93-2.65-1.55-4.61
						c-2.49-1.96-8.46-3.29-8.46-3.29S307.5,783.45,309.98,785.42z"/>
				</g>
			</g>
		</g>
	</g>
	<g>
		<g>
			<g>
				<g>
					<g>
						<path class="st0" d="M119.62,117.18c5.08,5.08,11.8,3.32,13.11,2c1.31-1.31,3.08-8.03-2-13.11
							c-5.08-5.08-18.47-7.36-18.47-7.36S114.53,112.1,119.62,117.18z"/>
						<g>
							<path class="st0" d="M104.9,119.06c-0.44,3.7,1.79,5.22,2.55,5.13c0.76-0.09,3.41-2.18,3.84-5.88
								c0.44-3.7-2.09-9.04-2.09-9.04S105.33,115.35,104.9,119.06z"/>
							<path class="st0" d="M131.85,97.75c3.7-0.44,5.8-3.09,5.88-3.84c0.09-0.76-1.43-2.98-5.13-2.55c-3.7,0.44-9.79,4.3-9.79,4.3
								S128.15,98.18,131.85,97.75z"/>
						</g>
					</g>
				</g>
				<g>
					<path class="st0" d="M142.61,54.13c-5.87-3.77-7.75-10.21-7.71-10.23c9.61-4.81,14.7,0.26,18.46-0.81
						c1.15-0.33,0.08,2.27-2.36,3.22c2.52,0.9,2.75,6.15,7.98,6.65C161.21,53.16,152.17,60.28,142.61,54.13z"/>
					<path class="st0" d="M205.07,62.95c-11.13,2.28-7.46,13.89-27.85,10.69c-8.3,19.02-26.6,22.6-43.91,12.07c0,0,0,0,0.01,0
						c-4.2-2.39-12.52-10.93-13.29-25.55c-0.7-13.35,9.69-24.01,9.28-18.33c-0.78,10.56,9.66,11.25,7.52,20.5
						c-1.61,6.95-3.34,0.02-6,3.08c-3.87,4.45-0.89,13.67,8.23,18.37c7.57,3.9,16.99-0.18,16.99-7.18c-6.37-4-4.34-15.85,4.94-12.82
						c11.43,3.73,3.64,22.43-10.29,25.6c9.9-0.05,18.02-5.01,22.74-18.4c0.61-1.72,1.39-3.2,2.28-4.5
						c2.62-5.38,3.91-19.68-6.07-23.7c8.93,5.5,5.19,20.79,2.2,24.91c1.48-4.33,0.89-9.46-5.25-14.56
						c-8.24-6.84-3.55-18.54-2.82-17.09c2.04,4.1,8.71,2.49,13.78,6.98c5.51,4.87,5.39,13.62,0.3,20.91
						C188.97,53.04,211.27,61.68,205.07,62.95z"/>
				</g>
				<g>
					<path class="st0" d="M86.46,136.97c4.33-5.48,10.92-6.71,10.94-6.67c3.85,10.03-1.69,14.6-0.99,18.45
						c0.21,1.17-2.27-0.15-2.97-2.67c-1.14,2.42-6.39,2.13-7.4,7.3C85.61,155.57,79.41,145.89,86.46,136.97z"/>
					<path class="st0" d="M71.59,198.27c-1.18-11.3-13.09-8.78-7.92-28.76c-18.12-10.12-19.9-28.68-7.72-44.88l0,0
						c2.79-3.95,12.1-11.4,26.72-10.73c13.35,0.61,22.95,11.99,17.33,11.02c-10.43-1.8-12.14,8.52-21.13,5.48
						c-6.76-2.28,0.31-3.32-2.48-6.27c-4.05-4.28-13.52-2.22-19.09,6.4c-4.62,7.15-1.48,16.93,5.49,17.61
						c4.6-5.95,16.2-2.77,12.28,6.17c-4.83,11.01-22.68,1.44-24.47-12.74c-0.91,9.86,3.23,18.43,16.09,24.43
						c1.65,0.77,3.05,1.69,4.26,2.71c5.1,3.14,19.21,5.82,24.18-3.73c-6.35,8.35-21.19,3.13-25.01-0.25c4.16,1.89,9.32,1.81,15-3.8
						c7.61-7.53,18.8-1.72,17.29-1.14c-4.28,1.63-3.33,8.43-8.29,13.04c-5.39,5-14.08,4.03-20.84-1.75
						C83.02,183.21,72.25,204.57,71.59,198.27z"/>
				</g>
				<g>
					<path class="st0" d="M85.78,63.77c2.45-7.56-0.55-14.6-0.6-14.59c-11.94,2.7-12.76,10.84-16.86,12.62
						c-1.25,0.54,1.57,2.06,4.41,1.13c-1.57,2.61,2.02,7.4-2.23,11.62C68.69,76.35,81.78,76.1,85.78,63.77z"/>
					<path class="st0" d="M37.09,116.66c11.46-6.03,16.61,6.85,32.26-10.69c21.05,10.77,39.76,0.71,47.42-21.08c0,0,0,0,0,0.01
						c1.98-5.14,3.14-18.68-6.74-32.11c-9.02-12.27-25.89-14.16-21.41-9.45c8.31,8.75-0.39,16.89,8.17,23.49
						c6.44,4.97,2.95-2.4,7.51-1.62c6.62,1.13,10.66,11.41,6.01,22.14c-3.86,8.9-15.1,12.12-20.16,5.94
						c2.73-8.13-7.62-17.1-13.61-7.73c-7.38,11.54,12.99,22.4,27.55,15.13c-8.76,7.1-19.5,8.6-33.33,0.21
						c-1.77-1.08-3.53-1.82-5.26-2.32c-6.2-2.85-17.66-14.52-11.76-25.27c-3.89,11.3,10.44,22.07,16.06,23.54
						c-4.43-2.74-7.62-7.69-5.89-16.62c2.32-11.98-10.27-18.9-9.86-17.1c1.16,5.09-5.88,8.49-7.11,16.11
						c-1.33,8.27,5.09,15.9,14.84,18.64C44.13,96.29,30.71,120.01,37.09,116.66z"/>
				</g>
			</g>
			<g>
				<g>
					<g>
						<path class="st0" d="M475.66,117.18c-5.08,5.08-11.8,3.32-13.11,2c-1.31-1.31-3.08-8.03,2-13.11
							c5.08-5.08,18.47-7.36,18.47-7.36S480.74,112.1,475.66,117.18z"/>
						<g>
							<path class="st0" d="M490.38,119.06c0.44,3.7-1.79,5.22-2.55,5.13c-0.76-0.09-3.41-2.18-3.84-5.88
								c-0.44-3.7,2.09-9.04,2.09-9.04S489.94,115.35,490.38,119.06z"/>
							<path class="st0" d="M463.42,97.75c-3.7-0.44-5.8-3.09-5.88-3.84c-0.09-0.76,1.43-2.98,5.13-2.55c3.7,0.44,9.79,4.3,9.79,4.3
								S467.13,98.18,463.42,97.75z"/>
						</g>
					</g>
				</g>
				<g>
					<path class="st0" d="M452.67,54.13c5.87-3.77,7.75-10.21,7.71-10.23c-9.61-4.81-14.7,0.26-18.46-0.81
						c-1.15-0.33-0.08,2.27,2.36,3.22c-2.52,0.9-2.75,6.15-7.98,6.65C434.07,53.16,443.1,60.28,452.67,54.13z"/>
					<path class="st0" d="M390.2,62.95c11.13,2.28,7.46,13.89,27.85,10.69c8.3,19.02,26.6,22.6,43.91,12.07c0,0,0,0,0,0
						c4.2-2.39,12.52-10.93,13.29-25.55c0.7-13.35-9.69-24.01-9.28-18.33c0.78,10.56-9.66,11.25-7.52,20.5
						c1.61,6.95,3.34,0.02,6,3.08c3.87,4.45,0.89,13.67-8.23,18.37c-7.57,3.9-16.99-0.18-16.99-7.18c6.37-4,4.34-15.85-4.94-12.82
						c-11.43,3.73-3.64,22.43,10.29,25.6c-9.9-0.05-18.02-5.01-22.74-18.4c-0.61-1.72-1.39-3.2-2.28-4.5
						c-2.62-5.38-3.91-19.68,6.07-23.7c-8.93,5.5-5.19,20.79-2.2,24.91c-1.48-4.33-0.89-9.46,5.25-14.56
						c8.24-6.84,3.55-18.54,2.82-17.09c-2.04,4.1-8.71,2.49-13.78,6.98c-5.51,4.87-5.39,13.62-0.3,20.91
						C406.31,53.04,384,61.68,390.2,62.95z"/>
				</g>
				<g>
					<path class="st0" d="M508.81,136.97c-4.33-5.48-10.92-6.71-10.94-6.67c-3.85,10.03,1.69,14.6,0.99,18.45
						c-0.21,1.17,2.27-0.15,2.97-2.67c1.14,2.42,6.39,2.13,7.4,7.3C509.66,155.57,515.86,145.89,508.81,136.97z"/>
					<path class="st0" d="M523.69,198.27c1.18-11.3,13.09-8.78,7.92-28.76c18.12-10.12,19.9-28.68,7.72-44.88l0,0
						c-2.79-3.95-12.11-11.4-26.72-10.73c-13.35,0.61-22.95,11.99-17.33,11.02c10.43-1.8,12.14,8.52,21.13,5.48
						c6.76-2.28-0.31-3.32,2.48-6.27c4.05-4.28,13.52-2.22,19.09,6.4c4.62,7.15,1.48,16.93-5.49,17.61
						c-4.6-5.95-16.2-2.77-12.28,6.17c4.83,11.01,22.68,1.44,24.47-12.74c0.91,9.86-3.22,18.43-16.09,24.43
						c-1.65,0.77-3.05,1.69-4.26,2.71c-5.1,3.14-19.21,5.82-24.18-3.73c6.35,8.35,21.19,3.13,25.01-0.25
						c-4.16,1.89-9.32,1.81-15-3.8c-7.61-7.53-18.8-1.72-17.28-1.14c4.28,1.63,3.33,8.43,8.29,13.04c5.39,5,14.08,4.03,20.84-1.75
						C512.25,183.21,523.03,204.57,523.69,198.27z"/>
				</g>
				<g>
					<path class="st0" d="M509.5,63.77c-2.45-7.56,0.55-14.6,0.6-14.59c11.94,2.7,12.76,10.84,16.86,12.62
						c1.25,0.54-1.57,2.06-4.41,1.13c1.57,2.61-2.02,7.4,2.23,11.62C526.59,76.35,513.49,76.1,509.5,63.77z"/>
					<path class="st0" d="M558.18,116.66c-11.46-6.03-16.61,6.85-32.26-10.69c-21.05,10.77-39.76,0.71-47.42-21.08c0,0,0,0,0,0.01
						c-1.98-5.14-3.14-18.68,6.74-32.11c9.02-12.27,25.89-14.16,21.41-9.45c-8.31,8.75,0.39,16.89-8.17,23.49
						c-6.44,4.97-2.95-2.4-7.51-1.62c-6.62,1.13-10.66,11.41-6.01,22.14c3.86,8.9,15.1,12.12,20.16,5.94
						c-2.73-8.13,7.62-17.1,13.61-7.73c7.38,11.54-12.99,22.4-27.55,15.13c8.76,7.1,19.5,8.6,33.33,0.21
						c1.77-1.08,3.53-1.82,5.26-2.32c6.2-2.85,17.66-14.52,11.76-25.27c3.89,11.3-10.44,22.07-16.06,23.54
						c4.43-2.74,7.62-7.69,5.89-16.62c-2.32-11.98,10.27-18.9,9.86-17.1c-1.16,5.09,5.88,8.49,7.11,16.11
						c1.33,8.27-5.09,15.9-14.84,18.64C551.14,96.29,564.56,120.01,558.18,116.66z"/>
				</g>
			</g>
		</g>
		<g>
			<g>
				<g>
					<g>
						<path class="st0" d="M475.66,724.7c-5.08-5.08-11.8-3.32-13.11-2c-1.31,1.31-3.08,8.03,2,13.11
							c5.08,5.08,18.47,7.36,18.47,7.36S480.74,729.79,475.66,724.7z"/>
						<g>
							<path class="st0" d="M490.38,722.83c0.44-3.7-1.79-5.22-2.55-5.13c-0.76,0.09-3.41,2.18-3.84,5.88
								c-0.44,3.7,2.09,9.04,2.09,9.04S489.94,726.54,490.38,722.83z"/>
							<path class="st0" d="M463.42,744.14c-3.7,0.44-5.8,3.09-5.88,3.84s1.43,2.98,5.13,2.55c3.7-0.44,9.79-4.3,9.79-4.3
								S467.13,743.71,463.42,744.14z"/>
						</g>
					</g>
				</g>
				<g>
					<path class="st0" d="M452.67,787.76c5.87,3.77,7.75,10.21,7.71,10.23c-9.61,4.81-14.7-0.26-18.46,0.81
						c-1.15,0.33-0.08-2.27,2.36-3.22c-2.52-0.9-2.75-6.15-7.98-6.65C434.07,788.73,443.1,781.61,452.67,787.76z"/>
					<path class="st0" d="M390.2,778.94c11.13-2.28,7.46-13.89,27.85-10.69c8.3-19.02,26.6-22.6,43.91-12.07c0,0,0,0,0,0
						c4.2,2.39,12.52,10.93,13.29,25.55c0.7,13.35-9.69,24.01-9.28,18.33c0.78-10.56-9.66-11.25-7.52-20.5
						c1.61-6.95,3.34-0.02,6-3.08c3.87-4.45,0.89-13.67-8.23-18.37c-7.57-3.9-16.99,0.18-16.99,7.18c6.37,4,4.34,15.85-4.94,12.82
						c-11.43-3.73-3.64-22.43,10.29-25.6c-9.9,0.05-18.02,5.01-22.74,18.4c-0.61,1.72-1.39,3.2-2.28,4.5
						c-2.62,5.38-3.91,19.68,6.07,23.7c-8.93-5.5-5.19-20.79-2.2-24.91c-1.48,4.33-0.89,9.46,5.25,14.56
						c8.24,6.84,3.55,18.54,2.82,17.09c-2.04-4.1-8.71-2.49-13.78-6.98c-5.51-4.87-5.39-13.62-0.3-20.91
						C406.31,788.85,384,780.21,390.2,778.94z"/>
				</g>
				<g>
					<path class="st0" d="M508.81,704.92c-4.33,5.48-10.92,6.71-10.94,6.67c-3.85-10.03,1.69-14.6,0.99-18.45
						c-0.21-1.17,2.27,0.15,2.97,2.67c1.14-2.42,6.39-2.13,7.4-7.3C509.66,686.32,515.86,696,508.81,704.92z"/>
					<path class="st0" d="M523.69,643.61c1.18,11.3,13.09,8.78,7.92,28.76c18.12,10.12,19.9,28.68,7.72,44.88c0,0,0,0,0,0
						c-2.79,3.95-12.11,11.4-26.72,10.73c-13.35-0.61-22.95-11.99-17.33-11.02c10.43,1.8,12.14-8.51,21.13-5.48
						c6.76,2.28-0.31,3.32,2.48,6.27c4.05,4.28,13.52,2.22,19.09-6.4c4.62-7.15,1.48-16.93-5.49-17.61
						c-4.6,5.95-16.2,2.77-12.28-6.17c4.83-11.01,22.68-1.44,24.47,12.74c0.91-9.86-3.22-18.43-16.09-24.43
						c-1.65-0.77-3.05-1.69-4.26-2.71c-5.1-3.14-19.21-5.82-24.18,3.73c6.35-8.35,21.19-3.13,25.01,0.25
						c-4.16-1.89-9.32-1.81-15,3.8c-7.61,7.53-18.8,1.72-17.28,1.14c4.28-1.63,3.33-8.43,8.29-13.04c5.39-5,14.08-4.03,20.84,1.75
						C512.25,658.68,523.03,637.32,523.69,643.61z"/>
				</g>
				<g>
					<path class="st0" d="M509.5,778.12c-2.45,7.57,0.55,14.6,0.6,14.59c11.94-2.7,12.76-10.84,16.86-12.62
						c1.25-0.54-1.57-2.06-4.41-1.13c1.57-2.61-2.02-7.4,2.23-11.62C526.59,765.54,513.49,765.79,509.5,778.12z"/>
					<path class="st0" d="M558.18,725.23c-11.46,6.03-16.61-6.85-32.26,10.69c-21.05-10.77-39.76-0.71-47.42,21.08c0,0,0,0,0-0.01
						c-1.98,5.14-3.14,18.68,6.74,32.11c9.02,12.27,25.89,14.16,21.41,9.45c-8.31-8.75,0.39-16.89-8.17-23.49
						c-6.44-4.97-2.95,2.4-7.51,1.62c-6.62-1.13-10.66-11.41-6.01-22.14c3.86-8.9,15.1-12.12,20.16-5.94
						c-2.73,8.13,7.62,17.1,13.61,7.73c7.38-11.54-12.99-22.4-27.55-15.13c8.76-7.1,19.5-8.6,33.33-0.21
						c1.77,1.08,3.53,1.82,5.26,2.32c6.2,2.85,17.66,14.52,11.76,25.27c3.89-11.3-10.44-22.07-16.06-23.54
						c4.43,2.74,7.62,7.69,5.89,16.62c-2.32,11.98,10.27,18.9,9.86,17.1c-1.16-5.09,5.88-8.49,7.11-16.11
						c1.33-8.27-5.09-15.9-14.84-18.64C551.14,745.6,564.56,721.88,558.18,725.23z"/>
				</g>
			</g>
			<g>
				<g>
					<g>
						<path class="st0" d="M119.62,724.7c5.08-5.08,11.8-3.32,13.11-2c1.31,1.31,3.08,8.03-2,13.11
							c-5.08,5.08-18.47,7.36-18.47,7.36S114.53,729.79,119.62,724.7z"/>
						<g>
							<path class="st0" d="M104.9,722.83c-0.44-3.7,1.79-5.22,2.55-5.13c0.76,0.09,3.41,2.18,3.84,5.88
								c0.44,3.7-2.09,9.04-2.09,9.04S105.33,726.54,104.9,722.83z"/>
							<path class="st0" d="M131.85,744.14c3.7,0.44,5.8,3.09,5.88,3.84c0.09,0.76-1.43,2.98-5.13,2.55c-3.7-0.44-9.79-4.3-9.79-4.3
								S128.15,743.71,131.85,744.14z"/>
						</g>
					</g>
				</g>
				<g>
					<path class="st0" d="M142.61,787.76c-5.87,3.77-7.75,10.21-7.71,10.23c9.61,4.81,14.7-0.26,18.46,0.81
						c1.15,0.33,0.08-2.27-2.36-3.22c2.52-0.9,2.75-6.15,7.98-6.65C161.21,788.73,152.17,781.61,142.61,787.76z"/>
					<path class="st0" d="M205.07,778.94c-11.13-2.28-7.46-13.89-27.85-10.69c-8.3-19.02-26.6-22.6-43.91-12.07c0,0,0,0,0.01,0
						c-4.2,2.39-12.52,10.93-13.29,25.55c-0.7,13.35,9.69,24.01,9.28,18.33c-0.78-10.56,9.66-11.25,7.52-20.5
						c-1.61-6.95-3.34-0.02-6-3.08c-3.87-4.45-0.89-13.67,8.23-18.37c7.57-3.9,16.99,0.18,16.99,7.18c-6.37,4-4.34,15.85,4.94,12.82
						c11.43-3.73,3.64-22.43-10.29-25.6c9.9,0.05,18.02,5.01,22.74,18.4c0.61,1.72,1.39,3.2,2.28,4.5
						c2.62,5.38,3.91,19.68-6.07,23.7c8.93-5.5,5.19-20.79,2.2-24.91c1.48,4.33,0.89,9.46-5.25,14.56
						c-8.24,6.84-3.55,18.54-2.82,17.09c2.04-4.1,8.71-2.49,13.78-6.98c5.51-4.87,5.39-13.62,0.3-20.91
						C188.97,788.85,211.27,780.21,205.07,778.94z"/>
				</g>
				<g>
					<path class="st0" d="M86.46,704.92c4.33,5.48,10.92,6.71,10.94,6.67c3.85-10.03-1.69-14.6-0.99-18.45
						c0.21-1.17-2.27,0.15-2.97,2.67c-1.14-2.42-6.39-2.13-7.4-7.3C85.61,686.32,79.41,696,86.46,704.92z"/>
					<path class="st0" d="M71.59,643.61c-1.18,11.3-13.09,8.78-7.92,28.76c-18.12,10.12-19.9,28.68-7.72,44.88c0,0,0,0,0,0
						c2.79,3.95,12.1,11.4,26.72,10.73c13.35-0.61,22.95-11.99,17.33-11.02c-10.43,1.8-12.14-8.51-21.13-5.48
						c-6.76,2.28,0.31,3.32-2.48,6.27c-4.05,4.28-13.52,2.22-19.09-6.4c-4.62-7.15-1.48-16.93,5.49-17.61
						c4.6,5.95,16.2,2.77,12.28-6.17c-4.83-11.01-22.68-1.44-24.47,12.74c-0.91-9.86,3.23-18.43,16.09-24.43
						c1.65-0.77,3.05-1.69,4.26-2.71c5.1-3.14,19.21-5.82,24.18,3.73c-6.35-8.35-21.19-3.13-25.01,0.25c4.16-1.89,9.32-1.81,15,3.8
						c7.61,7.53,18.8,1.72,17.29,1.14c-4.28-1.63-3.33-8.43-8.29-13.04c-5.39-5-14.08-4.03-20.84,1.75
						C83.02,658.68,72.25,637.32,71.59,643.61z"/>
				</g>
				<g>
					<path class="st0" d="M85.78,778.12c2.45,7.57-0.55,14.6-0.6,14.59c-11.94-2.7-12.76-10.84-16.86-12.62
						c-1.25-0.54,1.57-2.06,4.41-1.13c-1.57-2.61,2.02-7.4-2.23-11.62C68.69,765.54,81.78,765.79,85.78,778.12z"/>
					<path class="st0" d="M37.09,725.23c11.46,6.03,16.61-6.85,32.26,10.69c21.05-10.77,39.76-0.71,47.42,21.08c0,0,0,0,0-0.01
						c1.98,5.14,3.14,18.68-6.74,32.11c-9.02,12.27-25.89,14.16-21.41,9.45c8.31-8.75-0.39-16.89,8.17-23.49
						c6.44-4.97,2.95,2.4,7.51,1.62c6.62-1.13,10.66-11.41,6.01-22.14c-3.86-8.9-15.1-12.12-20.16-5.94
						c2.73,8.13-7.62,17.1-13.61,7.73c-7.38-11.54,12.99-22.4,27.55-15.13c-8.76-7.1-19.5-8.6-33.33-0.21
						c-1.77,1.08-3.53,1.82-5.26,2.32c-6.2,2.85-17.66,14.52-11.76,25.27c-3.89-11.3,10.44-22.07,16.06-23.54
						c-4.43,2.74-7.62,7.69-5.89,16.62c2.32,11.98-10.27,18.9-9.86,17.1c1.16-5.09-5.88-8.49-7.11-16.11
						c-1.33-8.27,5.09-15.9,14.84-18.64C44.13,745.6,30.71,721.88,37.09,725.23z"/>
				</g>
			</g>
		</g>
	</g>
	<g>
		<g>
			<g>
				<rect x="69.93" y="204.45" class="st0" width="4.79" height="162.98"/>
				<rect x="53.36" y="170.89" class="st0" width="2.57" height="207.2"/>
			</g>
			<g>
				<rect x="69.93" y="474.46" class="st0" width="4.79" height="162.98"/>
				<rect x="53.36" y="463.81" class="st0" width="2.57" height="207.2"/>
			</g>
		</g>
		<g>
			<g>
				
					<rect x="520.56" y="474.46" transform="matrix(-1 -1.224647e-16 1.224647e-16 -1 1045.9139 1111.902)" class="st0" width="4.79" height="162.98"/>
				
					<rect x="539.34" y="463.81" transform="matrix(-1 -1.224647e-16 1.224647e-16 -1 1081.2482 1134.808)" class="st0" width="2.57" height="207.2"/>
			</g>
			<g>
				
					<rect x="520.56" y="204.45" transform="matrix(-1 -1.224647e-16 1.224647e-16 -1 1045.9139 571.8769)" class="st0" width="4.79" height="162.98"/>
				
					<rect x="539.34" y="170.89" transform="matrix(-1 -1.224647e-16 1.224647e-16 -1 1081.2482 548.9709)" class="st0" width="2.57" height="207.2"/>
			</g>
		</g>
	</g>
	<g>
		<g>
			<g>
				
					<rect x="349.8" y="32.86" transform="matrix(-1.836970e-16 1 -1 -1.836970e-16 417.9786 -286.4074)" class="st0" width="4.79" height="65.86"/>
				
					<rect x="355.53" y="6.26" transform="matrix(-1.836970e-16 1 -1 -1.836970e-16 404.9397 -308.7027)" class="st0" width="2.57" height="83.73"/>
			</g>
			<g>
				
					<rect x="240.69" y="32.86" transform="matrix(-1.836970e-16 1 -1 -1.836970e-16 308.8682 -177.297)" class="st0" width="4.79" height="65.86"/>
				
					<rect x="237.17" y="6.26" transform="matrix(-1.836970e-16 1 -1 -1.836970e-16 286.5729 -190.3359)" class="st0" width="2.57" height="83.73"/>
			</g>
		</g>
		<g>
			<g>
				
					<rect x="240.69" y="743.17" transform="matrix(6.123234e-17 -1 1 6.123234e-17 -533.0215 1019.1863)" class="st0" width="4.79" height="65.86"/>
				
					<rect x="237.17" y="751.91" transform="matrix(6.123234e-17 -1 1 6.123234e-17 -555.3166 1032.2253)" class="st0" width="2.57" height="83.73"/>
			</g>
			<g>
				
					<rect x="349.8" y="743.17" transform="matrix(6.123234e-17 -1 1 6.123234e-17 -423.9109 1128.2969)" class="st0" width="4.79" height="65.86"/>
				
					<rect x="355.53" y="751.91" transform="matrix(6.123234e-17 -1 1 6.123234e-17 -436.9498 1150.5922)" class="st0" width="2.57" height="83.73"/>
			</g>
		</g>
	</g>
</g>
</svg>
