<?xml version="1.0" encoding="utf-8"?>
<!-- Generator: Adobe Illustrator 24.0.1, SVG Export Plug-In . SVG Version: 6.00 Build 0)  -->
<svg version="1.1" id="Layer_1" xmlns="http://www.w3.org/2000/svg" xmlns:xlink="http://www.w3.org/1999/xlink" x="0px" y="0px"
	 viewBox="0 0 595.28 841.89" style="enable-background:new 0 0 595.28 841.89;" xml:space="preserve">
<style type="text/css">
	.st0{fill:#E1D3C1;}
</style>
<g>
	<g>
		<g>
			<g>
				<g>
					<g>
						<path class="st0" d="M279.52,50.31c4.38,0,16.95,7.94,16.95,7.94s-12.57,7.94-16.95,7.94s-6.94-7.94-6.94-7.94
							S275.14,50.31,279.52,50.31z"/>
						<path class="st0" d="M316.48,66.18c-4.38,0-16.95-7.94-16.95-7.94s12.57-7.94,16.95-7.94c4.38,0,6.94,7.94,6.94,7.94
							S320.87,66.18,316.48,66.18z"/>
					</g>
					<g>
						<path class="st0" d="M302.85,44.09c0,3.36-4.84,12.98-4.84,12.98s-4.84-9.62-4.84-12.98c0-3.36,4.84-5.32,4.84-5.32
							S302.85,40.74,302.85,44.09z"/>
						<path class="st0" d="M293.16,72.39c0-3.36,4.84-12.98,4.84-12.98s4.84,9.62,4.84,12.98c0,3.36-4.84,5.32-4.84,5.32
							S293.16,75.75,293.16,72.39z"/>
					</g>
				</g>
				<path class="st0" d="M341.73,64.68L341.73,64.68c-3.55-3.55-3.55-9.31,0-12.87l0,0c-3.55,3.55-9.31,3.55-12.87,0l0,0
					c3.55,3.55,3.55,9.31,0,12.87l0,0C332.41,61.12,338.18,61.12,341.73,64.68z"/>
				<path class="st0" d="M267.15,64.68L267.15,64.68c-3.55-3.55-3.55-9.31,0-12.87l0,0c-3.55,3.55-9.31,3.55-12.87,0l0,0
					c3.55,3.55,3.55,9.31,0,12.87l0,0C257.83,61.12,263.59,61.12,267.15,64.68z"/>
			</g>
			<g>
				<g>
					<path class="st0" d="M80.19,84.75c-7.9,8.45-5.2,23.68,6.04,28.26c6.98,2.84,12.96-2.77,11.55-8.43
						c-1.18-4.71-8.99-8.06-11.46-0.12c-9.6-6.54-4.91-18.21,11.71-22.1c9.74-2.28,16.49-5.31,23.7-16.82
						C104.22,83.16,92.01,72.11,80.19,84.75z"/>
					<path class="st0" d="M49.73,62.81c-5.65,2.99-5.9,16.43,8.54,15.05c1.24,10.63,21.68,5.04,31.56-5.01
						c-14.9,6.59-31.44-3.69-29.59-17.22c1.94-14.15,19.69-12.28,18.38-4.46c-4.69-0.4-7.85,3.43-6.18,7.71
						c1.96,5.03,8.06,3.85,10.12-0.87c2.06-4.72,0.47-12.14-6.54-15.25c-6.03-2.68-13.98-0.09-17.4,6.86
						c-3.16-3.4-6.95-3.74-10.44-1.6C42.47,51.54,43.19,60.82,49.73,62.81z"/>
					<path class="st0" d="M130.55,120.29c5.75-0.88,9.97-12.34-2.83-15.47c2.12-9.5-17.1-10.81-28.58-5.14
						c14.75-1.2,25.88,12.57,20.25,23.62c-5.9,11.57-20.56,4.65-17.1-1.67c3.91,1.74,7.76-0.59,7.61-4.77
						c-0.18-4.9-5.77-5.71-8.94-2.28c-3.18,3.44-4.03,10.28,1.05,15.04c4.37,4.1,11.97,4.25,16.98-0.69
						c1.69,3.86,4.84,5.29,8.48,4.49C133.41,132.13,135.56,123.96,130.55,120.29z"/>
					<path class="st0" d="M132.88,51.37c3.01-9.76-1.69-14.54-1.52-20.1c0.04-1.31-2.49,0.24-3.18,3.03
						c-1.33-2.62-7.1-2.14-8.38-7.79c-0.54-2.4-6.88,8.96,1.35,17C125.21,47.47,130.18,47.73,132.88,51.37z"/>
					<path class="st0" d="M187.12,72.76c5.9-6.91,3.74-12.48,5.84-16.97c0.5-1.06-2.12-0.69-3.67,1.36
						c-0.17-2.62-5.06-4.25-4.11-9.32c0.4-2.15-8.79,4.9-4.89,14.38C182.21,66.87,186.19,68.83,187.12,72.76z"/>
					<path class="st0" d="M203.05,87.14c-0.68-0.06-1.33-0.1-1.96-0.11c-27.68-2.77-21.22-24.25-32.03-21.11
						c-7.06,2.05,0.38,3.35-2.5,6.22c-4.18,4.16-14.15,1.75-20.11-7.11c-4.95-7.36-1.82-17.07,5.48-17.51
						c4.92,6.15,17.03,3.36,12.78-5.77c-6.35-13.63-32.32,2.47-23.96,21.52c0.2,0.45,0.41,0.88,0.62,1.32
						c-16.37-14.41-33.62-15.94-48.11-9.32c-8.56,3.91-2.84,13.07,3.49,8.88c13.88-9.19,32.86-4.48,45.53,3.59
						c-0.43-0.21-0.86-0.44-1.29-0.61c-11.27-4.42-24.5,5.62-23.79,17.41c0.58,9.57,8.46,12.16,11.98,9.07
						c3.5-3.08,1.91-12.43-5.26-11.45c1.4-11.77,15.35-12.87,25.05-7.1c1.49,1.42,3.09,2.69,4.79,3.83
						c0.11,0.12,0.24,0.22,0.35,0.35c-0.04-0.06-0.08-0.13-0.12-0.19c2.67,1.77,5.59,3.21,8.69,4.38c-4.38,0.3-7.43,2.22-10.79,2.09
						c-1.15-0.04,0.19,2.18,2.63,2.8c-2.3,1.15-1.9,6.19-6.84,7.27c-2.1,0.46,7.79,6.05,14.85-1.09c3.06-3.09,3.62-6.82,5.88-9.27
						c8.32,2.15,17.64,2.71,27.18,2.4c-5.48,1.37-8.7,4.61-12.86,5.34c-1.36,0.24,0.77,2.51,3.8,2.63
						c-2.42,1.93-0.69,7.76-6.23,10.28c-2.35,1.07,10.68,5.17,17.2-5c3.18-4.97,2.44-10.09,5.52-13.65c0.1-0.01,0.19-0.01,0.29-0.02
						c-0.09-0.01-0.17-0.02-0.26-0.02C203.02,87.18,203.03,87.16,203.05,87.14z"/>
					<path class="st0" d="M72.72,101.16c-0.03,0.55-0.09,1.07-0.15,1.57c-1.26,22.39,16.66,19.93,12.81,28.15
						c-2.52,5.36-2.62-0.72-5.26,1.22c-3.84,2.81-3.16,11.05,3.15,16.91c5.24,4.86,13.37,3.58,14.63-2.18
						c-4.28-4.69-0.55-13.98,6.19-9.46c10.06,6.76-6.01,25.43-20.14,16.39c-0.33-0.21-0.65-0.44-0.97-0.66
						c9.43,14.84,8.49,28.77,1.41,39.48c-4.19,6.33-10.77,0.63-6.64-3.89c9.05-9.9,7.67-25.61,2.83-36.71
						c0.12,0.37,0.24,0.74,0.32,1.1c2.11,9.53-7.54,18.81-16.84,16.77c-7.55-1.66-8.63-8.26-5.72-10.67
						c2.89-2.4,10.14,0.03,8.46,5.62c9.55,0.36,12.17-10.61,8.79-19.06c-0.94-1.36-1.76-2.8-2.45-4.29
						c-0.08-0.1-0.15-0.22-0.23-0.32c0.05,0.04,0.09,0.08,0.14,0.12c-1.07-2.35-1.86-4.85-2.4-7.47c-0.79,3.45-2.69,5.64-3.01,8.33
						c-0.11,0.92-1.71-0.43-1.9-2.45c-1.2,1.69-5.17,0.74-6.65,4.54c-0.63,1.61-3.85-6.96,2.72-11.69c2.85-2.05,5.88-2.03,8.11-3.53
						c-0.67-6.9,0.05-14.39,1.49-21.94c-1.77,4.2-4.76,6.35-5.86,9.57c-0.36,1.05-1.91-0.93-1.62-3.35
						c-1.84,1.68-6.27-0.42-8.96,3.68c-1.14,1.74-2.78-9.16,6.14-13.07c4.36-1.91,8.34-0.68,11.56-2.69
						c0.02-0.08,0.03-0.15,0.05-0.23c-0.01,0.07-0.01,0.14-0.02,0.21C72.69,101.17,72.71,101.16,72.72,101.16z"/>
					<path class="st0" d="M40.34,100.57c3.78-10.98,16.34-11.65,25.21-8.29c-8.9-6.19-17.67-6.88-25.3-0.06
						c-5.37,4.81-2.48,12.6-6.64,15.09c-1.47,0.88,10.84,4.85,17.57-4.4c5.02-6.89,10.9-9.74,15.44-8.55
						C62.23,91.57,45.66,90.71,40.34,100.57z"/>
					<path class="st0" d="M156.19,112.33c-9.23,3.32-16.31-4.6-18.79-12.22c0.63,9.13,4.82,15.28,13.34,16.69
						c6.01,0.99,9.61-5.03,13.45-3.61c1.36,0.5-2.54-9.7-12.19-9.25c-7.2,0.34-12.18-2.03-13.79-5.65
						C138.69,102.68,146.89,114.04,156.19,112.33z"/>
					<path class="st0" d="M229.57,57.78c-1.19-1.7-2.83,8.87,6.52,13.81c5.74,3.04,11.82,1.61,11.82,1.57
						c-0.49-9.99-6.93-11.79-7.78-15.34c-0.26-1.08-1.88,0.98-1.53,3.39C236.73,59.58,232.37,61.8,229.57,57.78z"/>
					<path class="st0" d="M252.15,76.76c-8.2,5.45-13.54-2.69-20.05,3.27c-4.9,4.48,1.51,2.71,0.24,6.27
						c-1.84,5.17-10.68,6.97-18.65,1.72c-6.62-4.36-7.62-13.85-1.94-17.05c6.16,3.34,14.83-3.72,8.13-9.86
						c-8.25-7.56-19.85,7.29-16.05,20.03c-4.48-8.05-4.17-16.9,4.52-26.84c1.11-1.28,1.96-2.58,2.61-3.9
						c3.16-4.59,14.17-12.17,21.99-5.91c-8.54-4.72-19.22,5.29-21.2,9.6c2.83-3.17,7.26-5.04,14.2-2.4
						c9.31,3.55,16.65-5.6,15.14-5.52c-4.26,0.22-6-5.92-11.95-7.98c-6.46-2.24-13.5,1.86-17.09,9.31
						c3.74-13.98-13.45-28.12-11.65-22.51c3.24,10.06-7.85,12.39,4.06,27.46c-11.63,15.42-6.17,31.89,10.28,41.11l0,0
						c3.86,2.31,14.59,5.15,26.78-0.9C252.67,87.12,256.57,73.82,252.15,76.76z"/>
				</g>
				<g>
					<path class="st0" d="M515.82,84.75c7.9,8.45,5.2,23.68-6.04,28.26c-6.98,2.84-12.96-2.77-11.55-8.43
						c1.18-4.71,8.99-8.06,11.46-0.12c9.6-6.54,4.91-18.21-11.71-22.1c-9.74-2.28-16.49-5.31-23.7-16.82
						C491.79,83.16,504,72.11,515.82,84.75z"/>
					<path class="st0" d="M546.28,62.81c5.65,2.99,5.9,16.43-8.54,15.05c-1.24,10.63-21.68,5.04-31.56-5.01
						c14.9,6.59,31.44-3.69,29.59-17.22c-1.94-14.15-19.69-12.28-18.38-4.46c4.69-0.4,7.85,3.43,6.18,7.71
						c-1.96,5.03-8.06,3.85-10.12-0.87c-2.06-4.72-0.47-12.14,6.54-15.25c6.03-2.68,13.98-0.09,17.4,6.86
						c3.16-3.4,6.95-3.74,10.44-1.6C553.54,51.54,552.82,60.82,546.28,62.81z"/>
					<path class="st0" d="M465.46,120.29c-5.75-0.88-9.97-12.34,2.83-15.47c-2.12-9.5,17.1-10.81,28.58-5.14
						c-14.75-1.2-25.88,12.57-20.25,23.62c5.9,11.57,20.56,4.65,17.1-1.67c-3.91,1.74-7.76-0.59-7.61-4.77
						c0.18-4.9,5.77-5.71,8.94-2.28c3.18,3.44,4.03,10.28-1.05,15.04c-4.37,4.1-11.97,4.25-16.98-0.69
						c-1.69,3.86-4.84,5.29-8.48,4.49C462.6,132.13,460.45,123.96,465.46,120.29z"/>
					<path class="st0" d="M463.13,51.37c-3.01-9.76,1.69-14.54,1.52-20.1c-0.04-1.31,2.49,0.24,3.18,3.03
						c1.33-2.62,7.1-2.14,8.38-7.79c0.54-2.4,6.88,8.96-1.35,17C470.8,47.47,465.83,47.73,463.13,51.37z"/>
					<path class="st0" d="M408.89,72.76c-5.9-6.91-3.74-12.48-5.84-16.97c-0.5-1.06,2.12-0.69,3.67,1.36
						c0.17-2.62,5.06-4.25,4.11-9.32c-0.4-2.15,8.79,4.9,4.89,14.38C413.8,66.87,409.82,68.83,408.89,72.76z"/>
					<path class="st0" d="M392.96,87.14c0.68-0.06,1.33-0.1,1.96-0.11c27.68-2.77,21.22-24.25,32.03-21.11
						c7.06,2.05-0.38,3.35,2.5,6.22c4.18,4.16,14.15,1.75,20.11-7.11c4.95-7.36,1.82-17.07-5.48-17.51
						c-4.92,6.15-17.03,3.36-12.78-5.77c6.35-13.63,32.32,2.47,23.96,21.52c-0.2,0.45-0.41,0.88-0.62,1.32
						c16.37-14.41,33.62-15.94,48.11-9.32c8.56,3.91,2.84,13.07-3.49,8.88c-13.88-9.19-32.86-4.48-45.53,3.59
						c0.43-0.21,0.86-0.44,1.29-0.61c11.27-4.42,24.5,5.62,23.79,17.41c-0.58,9.57-8.46,12.16-11.98,9.07
						c-3.5-3.08-1.91-12.43,5.26-11.45c-1.4-11.77-15.35-12.87-25.05-7.1c-1.49,1.42-3.09,2.69-4.79,3.83
						c-0.11,0.12-0.24,0.22-0.35,0.35c0.04-0.06,0.08-0.13,0.12-0.19c-2.67,1.77-5.59,3.21-8.69,4.38c4.38,0.3,7.43,2.22,10.79,2.09
						c1.15-0.04-0.19,2.18-2.63,2.8c2.3,1.15,1.9,6.19,6.84,7.27c2.1,0.46-7.79,6.05-14.85-1.09c-3.06-3.09-3.62-6.82-5.88-9.27
						c-8.32,2.15-17.64,2.71-27.18,2.4c5.48,1.37,8.7,4.61,12.86,5.34c1.36,0.24-0.77,2.51-3.8,2.63c2.42,1.93,0.69,7.76,6.23,10.28
						c2.35,1.07-10.68,5.17-17.2-5c-3.18-4.97-2.44-10.09-5.52-13.65c-0.1-0.01-0.19-0.01-0.29-0.02c0.09-0.01,0.17-0.02,0.26-0.02
						C392.98,87.18,392.98,87.16,392.96,87.14z"/>
					<path class="st0" d="M523.29,101.16c0.03,0.55,0.09,1.07,0.15,1.57c1.26,22.39-16.66,19.93-12.81,28.15
						c2.52,5.36,2.62-0.72,5.26,1.22c3.84,2.81,3.16,11.05-3.15,16.91c-5.24,4.86-13.37,3.58-14.63-2.18
						c4.28-4.69,0.55-13.98-6.19-9.46c-10.06,6.76,6.01,25.43,20.14,16.39c0.33-0.21,0.65-0.44,0.97-0.66
						c-9.43,14.84-8.49,28.77-1.41,39.48c4.19,6.33,10.77,0.63,6.64-3.89c-9.05-9.9-7.67-25.61-2.83-36.71
						c-0.12,0.37-0.24,0.74-0.32,1.1c-2.11,9.53,7.54,18.81,16.84,16.77c7.55-1.66,8.63-8.26,5.72-10.67
						c-2.89-2.4-10.14,0.03-8.46,5.62c-9.55,0.36-12.17-10.61-8.79-19.06c0.94-1.36,1.76-2.8,2.45-4.29
						c0.08-0.1,0.15-0.22,0.23-0.32c-0.05,0.04-0.09,0.08-0.14,0.12c1.07-2.35,1.86-4.85,2.4-7.47c0.79,3.45,2.69,5.64,3.01,8.33
						c0.11,0.92,1.71-0.43,1.9-2.45c1.2,1.69,5.17,0.74,6.65,4.54c0.63,1.61,3.85-6.96-2.72-11.69c-2.85-2.05-5.88-2.03-8.11-3.53
						c0.67-6.9-0.05-14.39-1.49-21.94c1.77,4.2,4.76,6.35,5.86,9.57c0.36,1.05,1.91-0.93,1.62-3.35c1.84,1.68,6.27-0.42,8.96,3.68
						c1.14,1.74,2.78-9.16-6.14-13.07c-4.36-1.91-8.34-0.68-11.56-2.69c-0.02-0.08-0.03-0.15-0.05-0.23
						c0.01,0.07,0.01,0.14,0.02,0.21C523.32,101.17,523.3,101.16,523.29,101.16z"/>
					<path class="st0" d="M555.67,100.57c-3.78-10.98-16.34-11.65-25.21-8.29c8.9-6.19,17.67-6.88,25.3-0.06
						c5.37,4.81,2.48,12.6,6.64,15.09c1.47,0.88-10.84,4.85-17.57-4.4c-5.02-6.89-10.9-9.74-15.44-8.55
						C533.78,91.57,550.34,90.71,555.67,100.57z"/>
					<path class="st0" d="M439.82,112.33c9.23,3.32,16.31-4.6,18.79-12.22c-0.63,9.13-4.82,15.28-13.34,16.69
						c-6.01,0.99-9.61-5.03-13.45-3.61c-1.36,0.5,2.54-9.7,12.19-9.25c7.2,0.34,12.18-2.03,13.79-5.65
						C457.32,102.68,449.12,114.04,439.82,112.33z"/>
					<path class="st0" d="M366.43,57.78c1.19-1.7,2.83,8.87-6.52,13.81c-5.74,3.04-11.82,1.61-11.82,1.57
						c0.49-9.99,6.93-11.79,7.78-15.34c0.26-1.08,1.88,0.98,1.53,3.39C359.27,59.58,363.64,61.8,366.43,57.78z"/>
					<path class="st0" d="M343.86,76.76c8.2,5.45,13.54-2.69,20.05,3.27c4.9,4.48-1.51,2.71-0.24,6.27
						c1.84,5.17,10.68,6.97,18.65,1.72c6.62-4.36,7.62-13.85,1.94-17.05c-6.16,3.34-14.83-3.72-8.13-9.86
						c8.25-7.56,19.85,7.29,16.05,20.03c4.48-8.05,4.17-16.9-4.52-26.84c-1.11-1.28-1.96-2.58-2.61-3.9
						c-3.16-4.59-14.17-12.17-21.99-5.91c8.54-4.72,19.22,5.29,21.2,9.6c-2.83-3.17-7.26-5.04-14.2-2.4
						c-9.31,3.55-16.65-5.6-15.14-5.52c4.26,0.22,6-5.92,11.95-7.98c6.46-2.24,13.5,1.86,17.09,9.31
						c-3.74-13.98,13.45-28.12,11.65-22.51c-3.24,10.06,7.85,12.39-4.06,27.46c11.63,15.42,6.17,31.89-10.28,41.11c0,0,0,0,0,0
						c-3.86,2.31-14.58,5.15-26.78-0.9C343.34,87.12,339.44,73.82,343.86,76.76z"/>
				</g>
			</g>
		</g>
		<g>
			<g>
				<g>
					<g>
						<path class="st0" d="M316.48,791.58c-4.38,0-16.95-7.94-16.95-7.94s12.57-7.94,16.95-7.94s6.94,7.94,6.94,7.94
							S320.87,791.58,316.48,791.58z"/>
						<path class="st0" d="M279.52,775.71c4.38,0,16.95,7.94,16.95,7.94s-12.57,7.94-16.95,7.94c-4.38,0-6.94-7.94-6.94-7.94
							S275.14,775.71,279.52,775.71z"/>
					</g>
					<g>
						<path class="st0" d="M293.16,797.8c0-3.36,4.84-12.98,4.84-12.98s4.84,9.62,4.84,12.98c0,3.36-4.84,5.32-4.84,5.32
							S293.16,801.15,293.16,797.8z"/>
						<path class="st0" d="M302.85,769.5c0,3.36-4.84,12.98-4.84,12.98s-4.84-9.62-4.84-12.98c0-3.36,4.84-5.32,4.84-5.32
							S302.85,766.14,302.85,769.5z"/>
					</g>
				</g>
				<path class="st0" d="M254.28,777.21L254.28,777.21c3.55,3.55,3.55,9.31,0,12.87l0,0c3.55-3.55,9.31-3.55,12.87,0l0,0
					c-3.55-3.55-3.55-9.31,0-12.87l0,0C263.59,780.77,257.83,780.77,254.28,777.21z"/>
				<path class="st0" d="M328.86,777.21L328.86,777.21c3.55,3.55,3.55,9.31,0,12.87l0,0c3.55-3.55,9.31-3.55,12.87,0l0,0
					c-3.55-3.55-3.55-9.31,0-12.87l0,0C338.18,780.77,332.41,780.77,328.86,777.21z"/>
			</g>
			<g>
				<g>
					<path class="st0" d="M515.82,757.14c7.9-8.45,5.2-23.68-6.04-28.26c-6.98-2.84-12.96,2.77-11.55,8.43
						c1.18,4.71,8.99,8.06,11.46,0.12c9.6,6.54,4.91,18.21-11.71,22.1c-9.74,2.28-16.49,5.31-23.7,16.82
						C491.79,758.73,504,769.78,515.82,757.14z"/>
					<path class="st0" d="M546.28,779.08c5.65-2.99,5.9-16.43-8.54-15.05c-1.24-10.63-21.68-5.04-31.56,5.01
						c14.9-6.59,31.44,3.69,29.59,17.22c-1.94,14.15-19.69,12.28-18.38,4.46c4.69,0.4,7.85-3.43,6.18-7.71
						c-1.96-5.03-8.06-3.85-10.12,0.87c-2.06,4.72-0.47,12.14,6.54,15.25c6.03,2.68,13.98,0.09,17.4-6.86
						c3.16,3.4,6.95,3.74,10.44,1.6C553.54,790.35,552.82,781.07,546.28,779.08z"/>
					<path class="st0" d="M465.46,721.6c-5.75,0.88-9.97,12.34,2.83,15.47c-2.12,9.5,17.1,10.81,28.58,5.14
						c-14.75,1.2-25.88-12.57-20.25-23.62c5.9-11.57,20.56-4.65,17.1,1.67c-3.91-1.74-7.76,0.59-7.61,4.77
						c0.18,4.9,5.77,5.71,8.94,2.28c3.18-3.44,4.03-10.28-1.05-15.04c-4.37-4.1-11.97-4.25-16.98,0.68
						c-1.69-3.86-4.84-5.29-8.48-4.49C462.6,709.75,460.45,717.93,465.46,721.6z"/>
					<path class="st0" d="M463.13,790.52c-3.01,9.76,1.69,14.54,1.52,20.1c-0.04,1.31,2.49-0.24,3.18-3.03
						c1.33,2.63,7.1,2.14,8.38,7.79c0.54,2.4,6.88-8.96-1.35-17C470.8,794.42,465.83,794.16,463.13,790.52z"/>
					<path class="st0" d="M408.89,769.13c-5.9,6.91-3.74,12.48-5.84,16.97c-0.5,1.06,2.12,0.69,3.67-1.36
						c0.17,2.62,5.06,4.25,4.11,9.32c-0.4,2.15,8.79-4.9,4.89-14.38C413.8,775.02,409.82,773.06,408.89,769.13z"/>
					<path class="st0" d="M392.96,754.75c0.68,0.06,1.33,0.1,1.96,0.11c27.68,2.77,21.22,24.25,32.03,21.11
						c7.06-2.05-0.38-3.35,2.5-6.22c4.18-4.16,14.15-1.75,20.11,7.11c4.95,7.36,1.82,17.07-5.48,17.51
						c-4.92-6.15-17.03-3.36-12.78,5.77c6.35,13.63,32.32-2.47,23.96-21.52c-0.2-0.45-0.41-0.88-0.62-1.32
						c16.37,14.41,33.62,15.94,48.11,9.32c8.56-3.91,2.84-13.07-3.49-8.88c-13.88,9.19-32.86,4.48-45.53-3.59
						c0.43,0.21,0.86,0.44,1.29,0.61c11.27,4.42,24.5-5.62,23.79-17.41c-0.58-9.57-8.46-12.16-11.98-9.07
						c-3.5,3.08-1.91,12.43,5.26,11.45c-1.4,11.77-15.35,12.87-25.05,7.1c-1.49-1.42-3.09-2.69-4.79-3.83
						c-0.11-0.12-0.24-0.22-0.35-0.35c0.04,0.06,0.08,0.13,0.12,0.19c-2.67-1.77-5.59-3.21-8.69-4.38c4.38-0.3,7.43-2.22,10.79-2.09
						c1.15,0.04-0.19-2.18-2.63-2.8c2.3-1.15,1.9-6.19,6.84-7.27c2.1-0.46-7.79-6.05-14.85,1.09c-3.06,3.09-3.62,6.82-5.88,9.27
						c-8.32-2.15-17.64-2.71-27.18-2.4c5.48-1.37,8.7-4.61,12.86-5.34c1.36-0.24-0.77-2.51-3.8-2.63c2.42-1.93,0.69-7.76,6.23-10.28
						c2.35-1.07-10.68-5.17-17.2,5c-3.18,4.97-2.44,10.09-5.52,13.65c-0.1,0.01-0.19,0.01-0.29,0.02c0.09,0.01,0.17,0.02,0.26,0.02
						C392.98,754.71,392.98,754.73,392.96,754.75z"/>
					<path class="st0" d="M523.29,740.73c0.03-0.55,0.09-1.07,0.15-1.57c1.26-22.39-16.66-19.93-12.81-28.15
						c2.52-5.36,2.62,0.72,5.26-1.22c3.84-2.81,3.16-11.05-3.15-16.91c-5.24-4.86-13.37-3.58-14.63,2.18
						c4.28,4.69,0.55,13.98-6.19,9.46c-10.06-6.76,6.01-25.43,20.14-16.39c0.33,0.21,0.65,0.44,0.97,0.66
						c-9.43-14.84-8.49-28.77-1.41-39.48c4.19-6.33,10.77-0.63,6.64,3.89c-9.05,9.9-7.67,25.61-2.83,36.71
						c-0.12-0.37-0.24-0.74-0.32-1.1c-2.11-9.53,7.54-18.81,16.84-16.77c7.55,1.66,8.63,8.26,5.72,10.67
						c-2.89,2.4-10.14-0.03-8.46-5.62c-9.55-0.36-12.17,10.61-8.79,19.06c0.94,1.36,1.76,2.8,2.45,4.29
						c0.08,0.1,0.15,0.22,0.23,0.32c-0.05-0.04-0.09-0.08-0.14-0.12c1.07,2.35,1.86,4.85,2.4,7.47c0.79-3.45,2.69-5.64,3.01-8.33
						c0.11-0.92,1.71,0.43,1.9,2.45c1.2-1.69,5.17-0.74,6.65-4.54c0.63-1.61,3.85,6.96-2.72,11.69c-2.85,2.05-5.88,2.03-8.11,3.53
						c0.67,6.9-0.05,14.39-1.49,21.94c1.77-4.2,4.76-6.35,5.86-9.57c0.36-1.05,1.91,0.93,1.62,3.35c1.84-1.68,6.27,0.42,8.96-3.68
						c1.14-1.74,2.78,9.16-6.14,13.07c-4.36,1.91-8.34,0.68-11.56,2.69c-0.02,0.08-0.03,0.15-0.05,0.23
						c0.01-0.07,0.01-0.14,0.02-0.21C523.32,740.72,523.3,740.72,523.29,740.73z"/>
					<path class="st0" d="M555.67,741.32c-3.78,10.98-16.34,11.65-25.21,8.29c8.9,6.19,17.67,6.88,25.3,0.06
						c5.37-4.81,2.48-12.6,6.64-15.09c1.47-0.88-10.84-4.85-17.57,4.4c-5.02,6.89-10.9,9.74-15.44,8.55
						C533.78,750.32,550.34,751.18,555.67,741.32z"/>
					<path class="st0" d="M439.82,729.56c9.23-3.32,16.31,4.6,18.79,12.22c-0.63-9.13-4.82-15.28-13.34-16.69
						c-6.01-0.99-9.61,5.03-13.45,3.61c-1.36-0.5,2.54,9.7,12.19,9.25c7.2-0.34,12.18,2.03,13.79,5.65
						C457.32,739.21,449.12,727.85,439.82,729.56z"/>
					<path class="st0" d="M366.43,784.11c1.19,1.7,2.83-8.87-6.52-13.81c-5.74-3.04-11.82-1.61-11.82-1.57
						c0.49,9.99,6.93,11.79,7.78,15.34c0.26,1.08,1.88-0.98,1.53-3.39C359.27,782.31,363.64,780.09,366.43,784.11z"/>
					<path class="st0" d="M343.86,765.13c8.2-5.45,13.54,2.69,20.05-3.27c4.9-4.48-1.51-2.71-0.24-6.27
						c1.84-5.17,10.68-6.97,18.65-1.72c6.62,4.36,7.62,13.85,1.94,17.05c-6.16-3.34-14.83,3.72-8.13,9.86
						c8.25,7.56,19.85-7.29,16.05-20.03c4.48,8.05,4.17,16.9-4.52,26.84c-1.11,1.28-1.96,2.58-2.61,3.9
						c-3.16,4.59-14.17,12.17-21.99,5.91c8.54,4.72,19.22-5.29,21.2-9.6c-2.83,3.17-7.26,5.04-14.2,2.4
						c-9.31-3.55-16.65,5.6-15.14,5.52c4.26-0.22,6,5.92,11.95,7.98c6.46,2.24,13.5-1.86,17.09-9.31
						c-3.74,13.98,13.45,28.12,11.65,22.51c-3.24-10.06,7.85-12.39-4.06-27.46c11.63-15.42,6.17-31.89-10.28-41.11c0,0,0,0,0,0
						c-3.86-2.31-14.58-5.15-26.78,0.9C343.34,754.77,339.44,768.07,343.86,765.13z"/>
				</g>
				<g>
					<path class="st0" d="M80.19,757.14c-7.9-8.45-5.2-23.68,6.04-28.26c6.98-2.84,12.96,2.77,11.55,8.43
						c-1.18,4.71-8.99,8.06-11.46,0.12c-9.6,6.54-4.91,18.21,11.71,22.1c9.74,2.28,16.49,5.31,23.7,16.82
						C104.22,758.73,92.01,769.78,80.19,757.14z"/>
					<path class="st0" d="M49.73,779.08c-5.65-2.99-5.9-16.43,8.54-15.05c1.24-10.63,21.68-5.04,31.56,5.01
						c-14.9-6.59-31.44,3.69-29.59,17.22c1.94,14.15,19.69,12.28,18.38,4.46c-4.69,0.4-7.85-3.43-6.18-7.71
						c1.96-5.03,8.06-3.85,10.12,0.87c2.06,4.72,0.47,12.14-6.54,15.25c-6.03,2.68-13.98,0.09-17.4-6.86
						c-3.16,3.4-6.95,3.74-10.44,1.6C42.47,790.35,43.19,781.07,49.73,779.08z"/>
					<path class="st0" d="M130.55,721.6c5.75,0.88,9.97,12.34-2.83,15.47c2.12,9.5-17.1,10.81-28.58,5.14
						c14.75,1.2,25.88-12.57,20.25-23.62c-5.9-11.57-20.56-4.65-17.1,1.67c3.91-1.74,7.76,0.59,7.61,4.77
						c-0.18,4.9-5.77,5.71-8.94,2.28c-3.18-3.44-4.03-10.28,1.05-15.04c4.37-4.1,11.97-4.25,16.98,0.68
						c1.69-3.86,4.84-5.29,8.48-4.49C133.41,709.75,135.56,717.93,130.55,721.6z"/>
					<path class="st0" d="M132.88,790.52c3.01,9.76-1.69,14.54-1.52,20.1c0.04,1.31-2.49-0.24-3.18-3.03
						c-1.33,2.63-7.1,2.14-8.38,7.79c-0.54,2.4-6.88-8.96,1.35-17C125.21,794.42,130.18,794.16,132.88,790.52z"/>
					<path class="st0" d="M187.12,769.13c5.9,6.91,3.74,12.48,5.84,16.97c0.5,1.06-2.12,0.69-3.67-1.36
						c-0.17,2.62-5.06,4.25-4.11,9.32c0.4,2.15-8.79-4.9-4.89-14.38C182.21,775.02,186.19,773.06,187.12,769.13z"/>
					<path class="st0" d="M203.05,754.75c-0.68,0.06-1.33,0.1-1.96,0.11c-27.68,2.77-21.22,24.25-32.03,21.11
						c-7.06-2.05,0.38-3.35-2.5-6.22c-4.18-4.16-14.15-1.75-20.11,7.11c-4.95,7.36-1.82,17.07,5.48,17.51
						c4.92-6.15,17.03-3.36,12.78,5.77c-6.35,13.63-32.32-2.47-23.96-21.52c0.2-0.45,0.41-0.88,0.62-1.32
						c-16.37,14.41-33.62,15.94-48.11,9.32c-8.56-3.91-2.84-13.07,3.49-8.88c13.88,9.19,32.86,4.48,45.53-3.59
						c-0.43,0.21-0.86,0.44-1.29,0.61c-11.27,4.42-24.5-5.62-23.79-17.41c0.58-9.57,8.46-12.16,11.98-9.07
						c3.5,3.08,1.91,12.43-5.26,11.45c1.4,11.77,15.35,12.87,25.05,7.1c1.49-1.42,3.09-2.69,4.79-3.83
						c0.11-0.12,0.24-0.22,0.35-0.35c-0.04,0.06-0.08,0.13-0.12,0.19c2.67-1.77,5.59-3.21,8.69-4.38c-4.38-0.3-7.43-2.22-10.79-2.09
						c-1.15,0.04,0.19-2.18,2.63-2.8c-2.3-1.15-1.9-6.19-6.84-7.27c-2.1-0.46,7.79-6.05,14.85,1.09c3.06,3.09,3.62,6.82,5.88,9.27
						c8.32-2.15,17.64-2.71,27.18-2.4c-5.48-1.37-8.7-4.61-12.86-5.34c-1.36-0.24,0.77-2.51,3.8-2.63
						c-2.42-1.93-0.69-7.76-6.23-10.28c-2.35-1.07,10.68-5.17,17.2,5c3.18,4.97,2.44,10.09,5.52,13.65c0.1,0.01,0.19,0.01,0.29,0.02
						c-0.09,0.01-0.17,0.02-0.26,0.02C203.02,754.71,203.03,754.73,203.05,754.75z"/>
					<path class="st0" d="M72.72,740.73c-0.03-0.55-0.09-1.07-0.15-1.57c-1.26-22.39,16.66-19.93,12.81-28.15
						c-2.52-5.36-2.62,0.72-5.26-1.22c-3.84-2.81-3.16-11.05,3.15-16.91c5.24-4.86,13.37-3.58,14.63,2.18
						c-4.28,4.69-0.55,13.98,6.19,9.46c10.06-6.76-6.01-25.43-20.14-16.39c-0.33,0.21-0.65,0.44-0.97,0.66
						c9.43-14.84,8.49-28.77,1.41-39.48c-4.19-6.33-10.77-0.63-6.64,3.89c9.05,9.9,7.67,25.61,2.83,36.71
						c0.12-0.37,0.24-0.74,0.32-1.1c2.11-9.53-7.54-18.81-16.84-16.77c-7.55,1.66-8.63,8.26-5.72,10.67
						c2.89,2.4,10.14-0.03,8.46-5.62c9.55-0.36,12.17,10.61,8.79,19.06c-0.94,1.36-1.76,2.8-2.45,4.29
						c-0.08,0.1-0.15,0.22-0.23,0.32c0.05-0.04,0.09-0.08,0.14-0.12c-1.07,2.35-1.86,4.85-2.4,7.47c-0.79-3.45-2.69-5.64-3.01-8.33
						c-0.11-0.92-1.71,0.43-1.9,2.45c-1.2-1.69-5.17-0.74-6.65-4.54c-0.63-1.61-3.85,6.96,2.72,11.69c2.85,2.05,5.88,2.03,8.11,3.53
						c-0.67,6.9,0.05,14.39,1.49,21.94c-1.77-4.2-4.76-6.35-5.86-9.57c-0.36-1.05-1.91,0.93-1.62,3.35
						c-1.84-1.68-6.27,0.42-8.96-3.68c-1.14-1.74-2.78,9.16,6.14,13.07c4.36,1.91,8.34,0.68,11.56,2.69
						c0.02,0.08,0.03,0.15,0.05,0.23c-0.01-0.07-0.01-0.14-0.02-0.21C72.69,740.72,72.71,740.72,72.72,740.73z"/>
					<path class="st0" d="M40.34,741.32c3.78,10.98,16.34,11.65,25.21,8.29c-8.9,6.19-17.67,6.88-25.3,0.06
						c-5.37-4.81-2.48-12.6-6.64-15.09c-1.47-0.88,10.84-4.85,17.57,4.4c5.02,6.89,10.9,9.74,15.44,8.55
						C62.23,750.32,45.66,751.18,40.34,741.32z"/>
					<path class="st0" d="M156.19,729.56c-9.23-3.32-16.31,4.6-18.79,12.22c0.63-9.13,4.82-15.28,13.34-16.69
						c6.01-0.99,9.61,5.03,13.45,3.61c1.36-0.5-2.54,9.7-12.19,9.25c-7.2-0.34-12.18,2.03-13.79,5.65
						C138.69,739.21,146.89,727.85,156.19,729.56z"/>
					<path class="st0" d="M229.57,784.11c-1.19,1.7-2.83-8.87,6.52-13.81c5.74-3.04,11.82-1.61,11.82-1.57
						c-0.49,9.99-6.93,11.79-7.78,15.34c-0.26,1.08-1.88-0.98-1.53-3.39C236.73,782.31,232.37,780.09,229.57,784.11z"/>
					<path class="st0" d="M252.15,765.13c-8.2-5.45-13.54,2.69-20.05-3.27c-4.9-4.48,1.51-2.71,0.24-6.27
						c-1.84-5.17-10.68-6.97-18.65-1.72c-6.62,4.36-7.62,13.85-1.94,17.05c6.16-3.34,14.83,3.72,8.13,9.86
						c-8.25,7.56-19.85-7.29-16.05-20.03c-4.48,8.05-4.17,16.9,4.52,26.84c1.11,1.28,1.96,2.58,2.61,3.9
						c3.16,4.59,14.17,12.17,21.99,5.91c-8.54,4.72-19.22-5.29-21.2-9.6c2.83,3.17,7.26,5.04,14.2,2.4
						c9.31-3.55,16.65,5.6,15.14,5.52c-4.26-0.22-6,5.92-11.95,7.98c-6.46,2.24-13.5-1.86-17.09-9.31
						c3.74,13.98-13.45,28.12-11.65,22.51c3.24-10.06-7.85-12.39,4.06-27.46c-11.63-15.42-6.17-31.89,10.28-41.11l0,0
						c3.86-2.31,14.59-5.15,26.78,0.9C252.67,754.77,256.57,768.07,252.15,765.13z"/>
				</g>
			</g>
		</g>
	</g>
	<g>
		<g>
			<g>
				<g>
					<g>
						<path class="st0" d="M57.53,443.3c0-5.3,9.6-20.51,9.6-20.51s9.6,15.21,9.6,20.51c0,5.3-9.6,8.4-9.6,8.4
							S57.53,448.61,57.53,443.3z"/>
						<path class="st0" d="M76.73,398.59c0,5.3-9.6,20.51-9.6,20.51s-9.6-15.21-9.6-20.51c0-5.3,9.6-8.4,9.6-8.4
							S76.73,393.28,76.73,398.59z"/>
					</g>
					<g>
						<path class="st0" d="M53.48,415.08c3.24,0,12.52,5.86,12.52,5.86s-9.28,5.86-12.52,5.86c-3.24,0-5.13-5.86-5.13-5.86
							S50.25,415.08,53.48,415.08z"/>
						<path class="st0" d="M80.78,426.81c-3.24,0-12.52-5.86-12.52-5.86s9.28-5.86,12.52-5.86c3.24,0,5.13,5.86,5.13,5.86
							S84.02,426.81,80.78,426.81z"/>
					</g>
				</g>
				<path class="st0" d="M74.92,368.04L74.92,368.04c-4.3,4.3-11.27,4.3-15.57,0l0,0c4.3,4.3,4.3,11.27,0,15.57l0,0
					c4.3-4.3,11.27-4.3,15.57,0l0,0C70.62,379.31,70.62,372.34,74.92,368.04z"/>
				<path class="st0" d="M74.92,458.28L74.92,458.28c-4.3,4.3-11.27,4.3-15.57,0l0,0c4.3,4.3,4.3,11.27,0,15.57l0,0
					c4.3-4.3,11.27-4.3,15.57,0l0,0C70.62,469.55,70.62,462.58,74.92,458.28z"/>
			</g>
			<g>
				<g>
					<path class="st0" d="M67.13,361.65c-1.07,0-1.94-0.87-1.94-1.94V182.33c0-1.07,0.87-1.94,1.94-1.94c1.07,0,1.94,0.87,1.94,1.94
						v177.38C69.07,360.78,68.21,361.65,67.13,361.65z"/>
				</g>
				<g>
					<path class="st0" d="M82.1,399.82c-0.53,0-0.97-0.44-0.97-0.97V212.2c0-0.53,0.44-0.97,0.97-0.97c0.53,0,0.97,0.44,0.97,0.97
						v186.64C83.07,399.38,82.63,399.82,82.1,399.82z"/>
				</g>
			</g>
			<g>
				<g>
					<path class="st0" d="M67.13,661.5c-1.07,0-1.94-0.87-1.94-1.94V482.18c0-1.07,0.87-1.94,1.94-1.94c1.07,0,1.94,0.87,1.94,1.94
						v177.38C69.07,660.63,68.21,661.5,67.13,661.5z"/>
				</g>
				<g>
					<path class="st0" d="M82.1,630.66c-0.53,0-0.97-0.44-0.97-0.97V443.05c0-0.53,0.44-0.97,0.97-0.97c0.53,0,0.97,0.44,0.97,0.97
						v186.64C83.07,630.23,82.63,630.66,82.1,630.66z"/>
				</g>
			</g>
		</g>
		<g>
			<g>
				<g>
					<g>
						<path class="st0" d="M545.6,443.3c0-5.3-9.6-20.51-9.6-20.51s-9.6,15.21-9.6,20.51c0,5.3,9.6,8.4,9.6,8.4
							S545.6,448.61,545.6,443.3z"/>
						<path class="st0" d="M526.39,398.59c0,5.3,9.6,20.51,9.6,20.51s9.6-15.21,9.6-20.51c0-5.3-9.6-8.4-9.6-8.4
							S526.39,393.28,526.39,398.59z"/>
					</g>
					<g>
						<path class="st0" d="M549.64,415.08c-3.24,0-12.52,5.86-12.52,5.86s9.28,5.86,12.52,5.86c3.24,0,5.13-5.86,5.13-5.86
							S552.88,415.08,549.64,415.08z"/>
						<path class="st0" d="M522.35,426.81c3.24,0,12.52-5.86,12.52-5.86s-9.28-5.86-12.52-5.86c-3.24,0-5.13,5.86-5.13,5.86
							S519.11,426.81,522.35,426.81z"/>
					</g>
				</g>
				<path class="st0" d="M528.21,368.04L528.21,368.04c4.3,4.3,11.27,4.3,15.57,0l0,0c-4.3,4.3-4.3,11.27,0,15.57l0,0
					c-4.3-4.3-11.27-4.3-15.57,0l0,0C532.51,379.31,532.51,372.34,528.21,368.04z"/>
				<path class="st0" d="M528.21,458.28L528.21,458.28c4.3,4.3,11.27,4.3,15.57,0l0,0c-4.3,4.3-4.3,11.27,0,15.57l0,0
					c-4.3-4.3-11.27-4.3-15.57,0l0,0C532.51,469.55,532.51,462.58,528.21,458.28z"/>
			</g>
			<g>
				<g>
					<path class="st0" d="M536,361.65c-1.07,0-1.94-0.87-1.94-1.94V182.33c0-1.07,0.87-1.94,1.94-1.94c1.07,0,1.94,0.87,1.94,1.94
						v177.38C537.94,360.78,537.07,361.65,536,361.65z"/>
				</g>
				<g>
					<path class="st0" d="M521.03,399.82c-0.53,0-0.97-0.44-0.97-0.97V212.2c0-0.53,0.44-0.97,0.97-0.97s0.97,0.44,0.97,0.97v186.64
						C522,399.38,521.56,399.82,521.03,399.82z"/>
				</g>
			</g>
			<g>
				<g>
					<path class="st0" d="M536,661.5c-1.07,0-1.94-0.87-1.94-1.94V482.18c0-1.07,0.87-1.94,1.94-1.94c1.07,0,1.94,0.87,1.94,1.94
						v177.38C537.94,660.63,537.07,661.5,536,661.5z"/>
				</g>
				<g>
					<path class="st0" d="M521.03,630.66c-0.53,0-0.97-0.44-0.97-0.97V443.05c0-0.53,0.44-0.97,0.97-0.97s0.97,0.44,0.97,0.97
						v186.64C522,630.23,521.56,630.66,521.03,630.66z"/>
				</g>
			</g>
		</g>
	</g>
</g>
</svg>
